<svg id="visual" viewBox="0 0 960 540" width="960" height="540" xmlns="http://www.w3.org/2000/svg" xmlns:xlink="http://www.w3.org/1999/xlink" version="1.1"><rect x="0" y="0" width="960" height="540" fill="#e1c699"></rect><defs><linearGradient id="grad1_0" x1="43.8%" y1="0%" x2="100%" y2="100%"><stop offset="14.444444444444446%" stop-color="#e1c699" stop-opacity="1"></stop><stop offset="85.55555555555554%" stop-color="#e1c699" stop-opacity="1"></stop></linearGradient></defs><defs><linearGradient id="grad2_0" x1="0%" y1="0%" x2="56.3%" y2="100%"><stop offset="14.444444444444446%" stop-color="#e1c699" stop-opacity="1"></stop><stop offset="85.55555555555554%" stop-color="#e1c699" stop-opacity="1"></stop></linearGradient></defs><g transform="translate(960, 0)"><path d="M0 261C-26.9 260 -53.8 258.9 -82.5 253.9C-111.2 248.9 -141.7 240 -158.7 218.4C-175.7 196.9 -179.1 162.9 -189.3 137.5C-199.6 112.2 -216.7 95.6 -228.3 74.2C-239.8 52.7 -245.9 26.3 -252 0L0 0Z" fill="#333"></path></g><g transform="translate(0, 540)"><path d="M0 -248C23.2 -238.8 46.4 -229.7 73.2 -225.4C100.1 -221.1 130.5 -221.8 151.1 -207.9C171.6 -194 182.2 -165.6 195.8 -142.2C209.3 -118.8 225.9 -100.4 238.7 -77.6C251.6 -54.7 260.8 -27.3 270 0L0 0Z" fill="#333"></path></g></svg>