<svg id="visual" viewBox="0 0 960 540" width="960" height="540" xmlns="http://www.w3.org/2000/svg" xmlns:xlink="http://www.w3.org/1999/xlink" version="1.1"><rect x="0" y="0" width="960" height="540" fill="#00101C"></rect><path d="M0 362L56 362L56 481L113 481L113 405L169 405L169 397L226 397L226 409L282 409L282 402L339 402L339 483L395 483L395 376L452 376L452 469L508 469L508 315L565 315L565 484L621 484L621 434L678 434L678 405L734 405L734 291L791 291L791 488L847 488L847 388L904 388L904 347L960 347L960 314L960 0L960 0L904 0L904 0L847 0L847 0L791 0L791 0L734 0L734 0L678 0L678 0L621 0L621 0L565 0L565 0L508 0L508 0L452 0L452 0L395 0L395 0L339 0L339 0L282 0L282 0L226 0L226 0L169 0L169 0L113 0L113 0L56 0L56 0L0 0Z" fill="#333333"></path><path d="M0 405L56 405L56 339L113 339L113 370L169 370L169 340L226 340L226 289L282 289L282 228L339 228L339 241L395 241L395 215L452 215L452 394L508 394L508 313L565 313L565 333L621 333L621 381L678 381L678 250L734 250L734 244L791 244L791 358L847 358L847 299L904 299L904 414L960 414L960 366L960 0L960 0L904 0L904 0L847 0L847 0L791 0L791 0L734 0L734 0L678 0L678 0L621 0L621 0L565 0L565 0L508 0L508 0L452 0L452 0L395 0L395 0L339 0L339 0L282 0L282 0L226 0L226 0L169 0L169 0L113 0L113 0L56 0L56 0L0 0Z" fill="#5b544b"></path><path d="M0 217L56 217L56 324L113 324L113 203L169 203L169 285L226 285L226 185L282 185L282 291L339 291L339 295L395 295L395 152L452 152L452 299L508 299L508 221L565 221L565 189L621 189L621 244L678 244L678 296L734 296L734 154L791 154L791 215L847 215L847 200L904 200L904 281L960 281L960 167L960 0L960 0L904 0L904 0L847 0L847 0L791 0L791 0L734 0L734 0L678 0L678 0L621 0L621 0L565 0L565 0L508 0L508 0L452 0L452 0L395 0L395 0L339 0L339 0L282 0L282 0L226 0L226 0L169 0L169 0L113 0L113 0L56 0L56 0L0 0Z" fill="#857864"></path><path d="M0 140L56 140L56 243L113 243L113 96L169 96L169 85L226 85L226 230L282 230L282 247L339 247L339 146L395 146L395 95L452 95L452 173L508 173L508 220L565 220L565 134L621 134L621 118L678 118L678 95L734 95L734 197L791 197L791 126L847 126L847 183L904 183L904 169L960 169L960 223L960 0L960 0L904 0L904 0L847 0L847 0L791 0L791 0L734 0L734 0L678 0L678 0L621 0L621 0L565 0L565 0L508 0L508 0L452 0L452 0L395 0L395 0L339 0L339 0L282 0L282 0L226 0L226 0L169 0L169 0L113 0L113 0L56 0L56 0L0 0Z" fill="#b29e7e"></path><path d="M0 27L56 27L56 146L113 146L113 156L169 156L169 45L226 45L226 91L282 91L282 74L339 74L339 95L395 95L395 145L452 145L452 48L508 48L508 151L565 151L565 60L621 60L621 43L678 43L678 41L734 41L734 83L791 83L791 89L847 89L847 81L904 81L904 104L960 104L960 24L960 0L960 0L904 0L904 0L847 0L847 0L791 0L791 0L734 0L734 0L678 0L678 0L621 0L621 0L565 0L565 0L508 0L508 0L452 0L452 0L395 0L395 0L339 0L339 0L282 0L282 0L226 0L226 0L169 0L169 0L113 0L113 0L56 0L56 0L0 0Z" fill="#e1c699"></path></svg>